External Loads File
version=1
nRows=29
nColumns=25
Range=5.000000e-03-10 seconds
endheader
time 	forceCrankRightX 	forceCrankRightY 	forceCrankRightZ 	pointCrankRightX 	pointCrankRightY 	pointCrankRightZ 	forceCrankLeftX 	forceCrankLeftY 	forceCrankLeftZ 	pointCrankLeftX 	pointCrankLeftY 	pointCrankLeftZ 	forceHandlebarRightX 	forceHandlebarRightY 	forceHandlebarRightZ 	pointHandlebarRightX 	pointHandlebarRightY 	pointHandlebarRightZ 	forceHandlebarLeftX 	forceHandlebarLeftY 	forceHandlebarLeftZ 	pointHandlebarLeftX 	pointHandlebarLeftY 	pointHandlebarLeftZ 		
2.505000 96.552571 212.116202 -0.000000 0.438357 0.173289 -0.121493 68.578232 94.203470 -0.000000 0.590055 0.482054 -0.371502 -122.703940 0.000000 0.000000 1.026900 1.035627 -0.116214 252.140085 0.000000 0.000000 1.004950 0.983798 -0.424487
2.510000 86.118524 180.846466 -0.000000 0.434312 0.176208 -0.121136 71.114005 92.295641 -0.000000 0.594717 0.479945 -0.371692 -138.957097 0.000000 0.000000 1.026104 1.035286 -0.118049 243.806546 0.000000 0.000000 1.005186 0.982909 -0.426443
2.515000 77.505990 154.637217 -0.000000 0.430293 0.178697 -0.121300 73.642056 90.291968 -0.000000 0.599369 0.477354 -0.371907 -155.775332 0.000000 0.000000 1.025404 1.034998 -0.119856 235.790749 0.000000 0.000000 1.005437 0.981530 -0.428300
2.520000 71.147701 133.161792 -0.000000 0.426039 0.181832 -0.120805 76.323674 88.031157 -0.000000 0.604005 0.474417 -0.372461 -172.982311 0.000000 0.000000 1.025108 1.035580 -0.121674 227.709788 0.000000 0.000000 1.005599 0.980418 -0.430799
2.525000 66.892729 116.138697 -0.000000 0.421645 0.185244 -0.120385 79.048563 85.546806 -0.000000 0.608395 0.470828 -0.372743 -191.105464 0.000000 0.000000 1.025953 1.039229 -0.124443 220.376412 0.000000 0.000000 1.005933 0.980476 -0.431579
2.530000 64.699416 103.033658 -0.000000 0.417614 0.190761 -0.120748 81.837654 82.774407 -0.000000 0.612532 0.467394 -0.373072 -210.123929 0.000000 0.000000 1.025593 1.038723 -0.125975 213.792285 0.000000 0.000000 1.006426 0.979520 -0.433888
2.535000 63.722482 93.702581 -0.000000 0.413409 0.192676 -0.120967 84.129887 80.290868 -0.000000 0.616825 0.463778 -0.373608 -229.221510 0.000000 0.000000 1.025773 1.039540 -0.128181 207.043500 0.000000 0.000000 1.006250 0.978131 -0.435800
2.540000 64.884245 86.774596 -0.000000 0.409169 0.198616 -0.121099 86.900666 77.132318 -0.000000 0.620700 0.459843 -0.374041 -248.438586 0.000000 0.000000 1.025746 1.039816 -0.130026 200.816907 0.000000 0.000000 1.006627 0.977129 -0.437367
2.545000 67.000399 82.287334 -0.000000 0.404796 0.202906 -0.121175 89.368016 74.147958 -0.000000 0.624337 0.455871 -0.374406 -267.320186 0.000000 0.000000 1.025887 1.039188 -0.131342 194.825034 0.000000 0.000000 1.008064 0.976449 -0.439283
2.550000 69.715146 79.831016 -0.000000 0.400688 0.205029 -0.121577 91.435288 71.512647 -0.000000 0.627740 0.451492 -0.374906 -285.421432 0.000000 0.000000 1.025685 1.039493 -0.133537 189.021892 0.000000 0.000000 1.007667 0.974876 -0.441197
2.555000 73.488323 78.307963 -0.000000 0.396631 0.209626 -0.121747 93.742711 68.403508 -0.000000 0.630828 0.447009 -0.375393 -302.173757 0.000000 0.000000 1.026387 1.040268 -0.135249 183.397260 0.000000 0.000000 1.008143 0.974278 -0.442141
2.560000 78.045812 77.222101 -0.000000 0.392475 0.215989 -0.121694 96.229102 64.782990 -0.000000 0.633713 0.442269 -0.375920 -317.274369 0.000000 0.000000 1.026368 1.039516 -0.136496 177.863585 0.000000 0.000000 1.009710 0.973646 -0.444006
2.565000 82.506042 76.793375 -0.000000 0.388556 0.220916 -0.121772 98.329767 61.431091 -0.000000 0.636331 0.437581 -0.376414 -330.638614 0.000000 0.000000 1.026784 1.039761 -0.137911 172.195900 0.000000 0.000000 1.009875 0.972194 -0.445428
2.570000 86.957831 76.401016 -0.000000 0.384765 0.225961 -0.121851 100.333716 57.959229 -0.000000 0.638516 0.432624 -0.376918 -342.522557 0.000000 0.000000 1.027319 1.039189 -0.138586 166.973830 0.000000 0.000000 1.012021 0.971501 -0.446429
2.575000 91.282111 75.734068 -0.000000 0.381170 0.230975 -0.121733 102.328424 54.253807 -0.000000 0.641049 0.427470 -0.377096 -352.313755 0.000000 0.000000 1.027371 1.039722 -0.140351 161.450751 0.000000 0.000000 1.010535 0.969995 -0.447761
2.580000 95.066300 75.005886 -0.000000 0.377858 0.235426 -0.121974 104.148235 50.681865 -0.000000 0.643031 0.422394 -0.377425 -362.066219 0.000000 0.000000 1.027770 1.039015 -0.141234 157.333871 0.000000 0.000000 1.011994 0.969349 -0.449015
2.585000 98.798642 73.467210 -0.000000 0.374584 0.240633 -0.121903 106.195103 46.465166 -0.000000 0.645803 0.417022 -0.378494 -370.866571 0.000000 0.000000 1.028554 1.038397 -0.141852 152.477282 0.000000 0.000000 1.014233 0.969083 -0.450189
2.590000 102.062461 71.618757 -0.000000 0.371523 0.245933 -0.121813 108.214925 42.144772 -0.000000 0.647337 0.411516 -0.378161 -380.363686 0.000000 0.000000 1.029504 1.037961 -0.142456 146.833001 0.000000 0.000000 1.016177 0.968677 -0.451094
2.595000 105.066484 69.226914 -0.000000 0.368729 0.251512 -0.122049 110.352212 37.420699 -0.000000 0.648829 0.405999 -0.378629 -392.500686 0.000000 0.000000 1.030000 1.037493 -0.143062 139.666100 0.000000 0.000000 1.016847 0.968364 -0.451667
2.600000 107.695303 66.561308 -0.000000 0.366028 0.256722 -0.121911 112.543627 32.502930 -0.000000 0.650078 0.400694 -0.378753 -407.644152 0.000000 0.000000 1.031127 1.036928 -0.143430 132.008903 0.000000 0.000000 1.018911 0.968028 -0.452474
2.605000 110.372781 63.043102 -0.000000 0.363492 0.263106 -0.121740 114.957035 26.714568 -0.000000 0.650954 0.395022 -0.378958 -424.595047 0.000000 0.000000 1.032211 1.036281 -0.143525 122.030640 0.000000 0.000000 1.019592 0.967507 -0.452857
2.610000 112.760941 59.322009 -0.000000 0.361363 0.268694 -0.121468 117.328890 20.706864 -0.000000 0.651889 0.389131 -0.378938 -442.437402 0.000000 0.000000 1.033658 1.035591 -0.143412 110.255056 0.000000 0.000000 1.021875 0.967527 -0.453332
2.615000 115.011890 55.230757 -0.000000 0.359330 0.274533 -0.121249 119.568798 14.365736 -0.000000 0.652653 0.383401 -0.378824 -459.552981 0.000000 0.000000 1.034852 1.034369 -0.143055 97.567409 0.000000 0.000000 1.022243 0.966860 -0.453314
2.620000 117.135160 50.808488 -0.000000 0.357605 0.280430 -0.121260 121.456554 7.925690 -0.000000 0.653294 0.377560 -0.378648 -475.183985 0.000000 0.000000 1.036120 1.033184 -0.142698 84.669106 0.000000 0.000000 1.022142 0.965791 -0.453603
2.625000 119.142495 46.058096 -0.000000 0.356104 0.286358 -0.121119 122.708507 1.765329 -0.000000 0.653850 0.371508 -0.378512 -488.027869 0.000000 0.000000 1.038132 1.033038 -0.142437 72.019241 0.000000 0.000000 1.024450 0.965881 -0.453727
2.630000 120.997609 41.077588 -0.000000 0.354944 0.292334 -0.121065 122.976425 -3.405946 -0.000000 0.654189 0.365324 -0.378313 -497.502801 0.000000 0.000000 1.039095 1.032091 -0.141716 60.884182 0.000000 0.000000 1.025287 0.966129 -0.453200
2.635000 122.634687 36.060181 -0.000000 0.353822 0.298222 -0.121145 121.881219 -6.500354 -0.000000 0.654430 0.359318 -0.378055 -503.245113 0.000000 0.000000 1.041217 1.032037 -0.141091 51.286791 0.000000 0.000000 1.027336 0.966391 -0.453077
2.640000 124.100945 30.777853 -0.000000 0.353074 0.304545 -0.121032 119.027302 -6.541583 -0.000000 0.654740 0.353197 -0.377723 -504.437371 0.000000 0.000000 1.042998 1.031789 -0.140562 42.624335 0.000000 0.000000 1.028633 0.966819 -0.452916
2.645000 125.266756 25.523615 -0.000000 0.352546 0.310702 -0.121230 114.142930 -1.771750 -0.000000 0.654748 0.346847 -0.377462 -500.850957 0.000000 0.000000 1.043909 1.030919 -0.139738 35.743352 0.000000 0.000000 1.028999 0.966891 -0.452015
